<svg width="72" height="15" viewBox="0 0 72 15" fill="none" xmlns="http://www.w3.org/2000/svg">
<path fill-rule="evenodd" clip-rule="evenodd" d="M11.0456 12.5312C10.2037 13.0482 9.30185 13.602 8.50755 14.0887C8.37639 14.1691 8.04627 14.3478 7.58 14.3478C7.11373 14.3478 6.80099 14.1773 6.65369 14.0887C4.7562 12.9476 2.28034 11.4191 1.43775 10.8914C0.595164 10.3638 0 9.93291 0 8.93757C0.00321364 8.32261 0.00652732 1.9381 0.00652732 1.06781C0.00652732 0.19753 0.779176 -0.326253 1.70673 0.234172C2.63428 0.794597 7.5793 3.83598 7.5793 3.83598C7.5793 3.83598 12.6278 0.731436 13.4521 0.234172C14.3995 -0.337254 15.1523 0.213858 15.1523 1.06087C15.1523 1.46966 15.1536 3.09058 15.1549 4.76862C15.1564 6.56749 15.1579 8.432 15.1579 8.93925C15.1579 9.9197 14.5946 10.3587 13.72 10.8914C13.2167 11.1979 12.1863 11.8307 11.0456 12.5312ZM25.7533 10.5586H25.2868C23.3119 10.5586 22.836 9.32107 22.836 8.04854V1.62154C22.836 1.35146 22.7425 1.11995 22.5742 0.927036C22.3872 0.75341 22.1627 0.656951 21.9009 0.656951C21.6391 0.656951 21.4146 0.75341 21.2276 0.927036C21.0593 1.11995 20.9658 1.35146 20.9658 1.62154V8.33792C20.9658 11.3331 22.6757 12.4878 25.1562 12.4878H25.4354C25.7533 12.4878 26.0339 12.4106 26.2583 12.237C26.5014 12.0634 26.6136 11.8126 26.6136 11.5232C26.6136 11.2531 26.5388 11.0216 26.3705 10.848C26.2209 10.6551 25.9964 10.5586 25.7533 10.5586ZM55.9372 10.5586H56.4037C56.6468 10.5586 56.8713 10.6551 57.0209 10.848C57.1892 11.0216 57.264 11.2531 57.264 11.5232C57.264 11.8126 57.1518 12.0634 56.9087 12.237C56.6842 12.4106 56.4037 12.4878 56.0858 12.4878H55.8066C53.3261 12.4878 51.6162 11.3331 51.6162 8.33792V1.62154C51.6162 1.35146 51.7097 1.11995 51.878 0.927036C52.065 0.75341 52.2895 0.656951 52.5513 0.656951C52.8131 0.656951 53.0376 0.75341 53.2246 0.927036C53.3929 1.11995 53.4864 1.35146 53.4864 1.62154V8.04854C53.4864 9.32107 53.9623 10.5586 55.9372 10.5586ZM70.1858 4.78541C70.7282 5.13266 71.1771 5.63425 71.495 6.25159C71.8317 6.86893 71.9813 7.56343 72 8.3351C72 9.10678 71.813 9.82058 71.4576 10.4379C71.121 11.0553 70.6534 11.5568 70.0549 11.9234C69.4751 12.2899 68.7831 12.4636 68.035 12.4636C67.2869 12.4636 66.6136 12.2706 66.0151 11.9234C65.4166 11.5568 64.9304 11.0553 64.5937 10.4379C64.2571 9.82058 64.0888 9.10678 64.0701 8.3351V1.64083C64.0701 1.35146 64.1636 1.10066 64.3319 0.927036C64.5376 0.75341 64.7621 0.656951 65.0239 0.656951C65.2857 0.656951 65.5289 0.714826 65.6972 0.907745C65.8655 1.10066 65.959 1.33217 65.959 1.62154V5.09408C66.1835 4.90116 66.4453 4.72753 66.7071 4.59249C67.1747 4.36098 67.7171 4.22594 68.2782 4.22594C68.9889 4.22594 69.6248 4.41886 70.1858 4.78541ZM69.1011 10.3607C69.419 10.1678 69.6622 9.87845 69.8492 9.5312C70.0549 9.18395 70.1484 8.77882 70.1297 8.3351C70.1297 7.89139 70.0362 7.48626 69.8492 7.13901C69.6622 6.79176 69.419 6.52167 69.1011 6.32875C68.7831 6.11654 68.4278 6.02008 68.0163 6.02008C67.6049 6.02008 67.2682 6.11654 66.9316 6.32875C66.6136 6.52167 66.3705 6.79176 66.1835 7.13901C65.9964 7.48626 65.9029 7.89139 65.9029 8.3351C65.9029 8.77882 65.9964 9.18395 66.1835 9.5312C66.3705 9.87845 66.6136 10.1485 66.9316 10.3607C67.2495 10.5537 67.6236 10.6501 68.0163 10.6501C68.4278 10.6501 68.7831 10.5537 69.1011 10.3607ZM59.731 4.55396C59.9367 4.38033 60.1611 4.28387 60.423 4.28387C60.7035 4.28387 60.9279 4.38033 61.115 4.55396C61.2833 4.74688 61.3768 4.97838 61.3768 5.26776V11.504C61.3768 11.7741 61.2833 12.0056 61.115 12.1985C60.9279 12.3914 60.7035 12.4879 60.423 12.4879C60.1611 12.4879 59.9367 12.3914 59.7497 12.2178C59.5626 12.0056 59.4691 11.7741 59.4691 11.504V5.26776C59.4691 4.97838 59.5626 4.72758 59.731 4.55396ZM60.423 0.830662C60.1051 0.830662 59.8432 0.946413 59.6001 1.19721C59.3756 1.42871 59.2634 1.6988 59.2634 2.02676C59.2634 2.35472 59.3756 2.6248 59.6001 2.8756C59.8245 3.1071 60.1051 3.22285 60.4043 3.22285C60.7222 3.22285 60.9841 3.1071 61.2085 2.8756C61.4329 2.6441 61.5639 2.35472 61.5639 2.02676C61.5639 1.6988 61.4516 1.42871 61.2272 1.19721C61.0215 0.965705 60.7409 0.830662 60.423 0.830662ZM47.5382 4.74695C46.9958 4.3997 46.3412 4.22607 45.5931 4.22607C44.845 4.22607 44.1717 4.3997 43.5732 4.76625C42.9934 5.1135 42.5258 5.5958 42.1892 6.23243C41.8712 6.84977 41.7029 7.56356 41.7029 8.35453C41.7029 9.1455 41.8712 9.85929 42.2266 10.4959C42.5819 11.1133 43.0682 11.5956 43.6854 11.9621C44.3026 12.3094 45.0133 12.483 45.7988 12.483C46.229 12.483 46.6965 12.4058 47.1641 12.2322C47.6504 12.0586 48.0618 11.8464 48.3798 11.5763C48.6603 11.3641 48.7164 11.094 48.6977 10.9203C48.679 10.6888 48.5668 10.4573 48.3611 10.2644C48.2115 10.1294 48.0244 10.0522 47.8187 10.0522H47.7813C47.5756 10.0522 47.3698 10.1294 47.2015 10.2644C47.0519 10.3802 46.8274 10.4959 46.5656 10.5924C46.3038 10.6888 46.0606 10.7274 45.7988 10.7274C45.1816 10.7274 44.6579 10.5538 44.2465 10.1873C43.9098 9.89788 43.6854 9.53133 43.5545 9.10691H48.3237C48.5668 9.10691 48.7725 9.02974 48.9596 8.85612C49.1279 8.68249 49.2027 8.47028 49.2027 8.21949C49.2027 7.44781 49.0531 6.75331 48.7725 6.17455C48.5107 5.5765 48.0805 5.09421 47.5382 4.74695ZM43.5732 7.44781C43.6854 7.06198 43.8911 6.73401 44.1717 6.46393C44.527 6.13597 44.9946 5.96234 45.5931 5.96234C46.1355 5.96234 46.5469 6.11667 46.8462 6.46393C47.108 6.73401 47.2763 7.06198 47.3698 7.44781H43.5732ZM39.3718 4.2705C39.502 4.2705 39.6508 4.30979 39.781 4.36873C40.0041 4.48661 40.1529 4.66344 40.2459 4.85991C40.3203 5.07602 40.3017 5.33143 40.2087 5.54755L37.3819 11.8542C37.1587 12.3651 36.7867 12.4829 36.5264 12.4829C36.266 12.4829 35.894 12.3847 35.6523 11.8739L32.8254 5.5672C32.7138 5.33143 32.7138 5.09567 32.7882 4.87955C32.8812 4.66344 33.0486 4.48661 33.2718 4.36873C33.4019 4.30979 33.5321 4.2705 33.6623 4.2705C33.7367 4.2705 33.8297 4.29014 33.9227 4.32944C34.1458 4.40803 34.3132 4.5652 34.4248 4.78132L36.5078 9.53589L38.5721 4.78132C38.7023 4.54555 38.8697 4.38838 39.0928 4.30979C39.1858 4.29014 39.2788 4.2705 39.3718 4.2705ZM29.8122 4.28387C29.5503 4.28387 29.3259 4.38033 29.1202 4.55396C28.9519 4.72758 28.8583 4.97838 28.8583 5.26776V11.504C28.8583 11.7741 28.9519 12.0056 29.1389 12.2178C29.3259 12.3914 29.5503 12.4879 29.8122 12.4879C30.0927 12.4879 30.3172 12.3914 30.5042 12.1985C30.6725 12.0056 30.766 11.7741 30.766 11.504V5.26776C30.766 4.97838 30.6725 4.74688 30.5042 4.55396C30.3172 4.38033 30.0927 4.28387 29.8122 4.28387ZM28.9892 1.19721C29.2324 0.946413 29.4942 0.830662 29.8122 0.830662C30.1301 0.830662 30.4107 0.965705 30.6164 1.19721C30.8408 1.42871 30.953 1.6988 30.953 2.02676C30.953 2.35472 30.8221 2.6441 30.5977 2.8756C30.3732 3.1071 30.1114 3.22285 29.7935 3.22285C29.4942 3.22285 29.2137 3.1071 28.9892 2.8756C28.7648 2.6248 28.6526 2.35472 28.6526 2.02676C28.6526 1.6988 28.7648 1.42871 28.9892 1.19721Z" fill="white"/>
</svg>
